<svg width="300" height="300" xmlns="http://www.w3.org/2000/svg" id="background">
    <rect width="12" height="12" x="12" y="0" fill="green" />
    <rect width="12" height="12" x="12" y="288" fill="red" />
    <polygon points="150,0 300,150 150,300 0,150" style="fill:None;stroke:orange;stroke-width:3" />
    <path d="M56 74 L90 40 L45 -5 M45 305 L100 250 L-5 145 M305 155 L280 130 L305 105 M-5 115 L10 100" style="fill:none;stroke:black;stroke-width:11"/>
    <path d="M4 54 L-5 45 M305 45 L170 180 L295 305 M285 -5 L305 15 M-5 5 L50 60 " style="fill:none;stroke:BLACK;stroke-width:11" id="last"/>
    <!--<line x1="57" y1="73" x2="94" y2="36" style="stroke:black;stroke-width:11"></line>
    <line x1="90" y1="40" x2="50" y2="0" style="stroke:black;stroke-width:11"></line>
    -->
</svg>